<?xml version="1.0" standalone="no"?>
<!DOCTYPE svg PUBLIC "-//W3C//DTD SVG 20010904//EN"
 "http://www.w3.org/TR/2001/REC-SVG-20010904/DTD/svg10.dtd">
<svg version="1.0" xmlns="http://www.w3.org/2000/svg"
 width="104.000000pt" height="135.000000pt" viewBox="0 0 104.000000 135.000000"
 preserveAspectRatio="xMidYMid meet">
<metadata>
Created by potrace 1.13, written by Peter Selinger 2001-2015
</metadata>
<g transform="translate(0.000000,135.000000) scale(0.100000,-0.100000)"
fill="#000000" stroke="none">
<path d="M235 1249 c-6 -9 24 -40 110 -112 l29 -25 -34 -28 c-19 -16 -53 -46
-75 -67 l-40 -38 65 -59 c36 -33 68 -60 73 -60 22 0 -2 -31 -64 -83 -56 -47
-68 -61 -58 -73 9 -11 24 -2 87 51 63 55 78 63 91 53 9 -7 44 -37 78 -66 54
-46 64 -52 70 -37 4 13 -1 25 -18 39 -14 12 -45 38 -69 59 l-45 39 68 61 c37
34 67 69 67 78 0 8 -29 39 -65 68 -36 29 -65 57 -65 61 0 5 29 33 64 62 57 47
84 88 57 88 -5 0 -42 -27 -81 -60 -39 -33 -75 -60 -78 -60 -4 0 -38 27 -77 60
-74 63 -80 66 -90 49z m290 -261 c10 -9 -10 -29 -92 -94 l-32 -26 -61 53 c-33
29 -59 56 -58 61 2 4 30 30 63 57 l60 49 55 -46 c30 -25 60 -50 65 -54z"/>
<path d="M140 975 c0 -238 2 -275 15 -275 13 0 15 37 15 275 0 238 -2 275 -15
275 -13 0 -15 -37 -15 -275z"/>
<path d="M760 1068 l0 -183 -77 -83 c-57 -63 -73 -86 -64 -95 8 -8 25 3 69 46
32 31 61 57 65 57 4 0 7 -25 7 -55 0 -42 3 -55 15 -55 12 0 15 13 15 60 0 33
3 60 7 60 4 0 33 -25 64 -56 34 -34 62 -54 69 -49 7 5 -15 34 -64 85 l-76 78
0 186 c0 159 -2 186 -15 186 -13 0 -15 -27 -15 -182z"/>
<path d="M141 646 c-8 -9 -11 -90 -9 -277 3 -241 5 -264 20 -267 16 -3 18 12
20 179 l3 182 61 -52 c34 -28 67 -51 73 -51 28 0 5 32 -64 89 -73 61 -75 64
-75 107 l0 45 61 -47 c33 -26 62 -52 65 -56 8 -12 21 -9 27 6 5 12 -72 83
-159 148 -7 5 -16 2 -23 -6z"/>
<path d="M683 589 c-46 -33 -83 -64 -83 -69 0 -24 26 -17 85 25 46 33 66 43
70 33 3 -7 6 -121 7 -252 2 -181 6 -240 16 -244 9 -3 12 52 12 252 0 141 3
256 6 256 3 0 34 -20 68 -45 71 -50 72 -51 79 -31 4 10 -22 35 -79 75 -46 34
-88 61 -92 61 -4 -1 -44 -28 -89 -61z"/>
<path d="M460 525 c0 -74 -4 -115 -10 -115 -6 0 -25 7 -41 16 -36 18 -68 12
-50 -10 7 -8 32 -23 57 -33 l44 -18 0 -137 c0 -110 3 -138 14 -138 17 0 26 52
26 164 0 84 1 88 20 82 11 -3 29 -9 40 -12 15 -5 20 -2 20 11 0 10 -15 23 -40
32 l-40 16 0 113 c0 121 -4 144 -26 144 -11 0 -14 -23 -14 -115z"/>
</g>
</svg>
